<?xml version="1.0" encoding="UTF-8"?>
<svg version="1.1" xmlns="http://www.w3.org/2000/svg" width="549" height="260">
<path d="M0 0 C3.37797129 4.29923619 4.31394902 6.98299613 4.2578125 12.484375 C4.25136719 13.59941406 4.24492187 14.71445313 4.23828125 15.86328125 C4.21314453 17.60158203 4.21314453 17.60158203 4.1875 19.375 C4.17847656 20.54933594 4.16945313 21.72367188 4.16015625 22.93359375 C4.13660063 25.83093536 4.10370652 28.72786441 4.0625 31.625 C4.90433838 31.60405273 5.74617676 31.58310547 6.61352539 31.56152344 C9.76501352 31.49297038 12.91611906 31.44301737 16.06811523 31.40527344 C17.42696713 31.38527372 18.78573424 31.35806424 20.14428711 31.32324219 C34.33870729 30.96877264 34.33870729 30.96877264 40.0625 35.625 C42.69646359 38.63985538 43.94866456 41.94308143 44.21875 45.93359375 C43.87252954 51.06631211 42.57675493 54.7408235 39.0625 58.625 C32.31968912 62.68219631 25.29095723 61.96341991 17.625 61.8125 C16.32111328 61.79896484 15.01722656 61.78542969 13.67382812 61.77148438 C10.46962378 61.73627334 7.26627895 61.68702094 4.0625 61.625 C4.11503848 65.41773453 4.21026205 69.20830542 4.3125 73 C4.32667969 74.06089844 4.34085937 75.12179688 4.35546875 76.21484375 C4.59949096 84.16996774 5.58161788 91.76997316 11.09765625 97.87890625 C11.76667969 98.31074219 12.43570313 98.74257812 13.125 99.1875 C13.79660156 99.64253906 14.46820313 100.09757812 15.16015625 100.56640625 C19.93544551 103.22370273 24.74580481 103.1779995 30.0625 102.625 C35.2010324 101.1258851 39.47146473 98.1651267 42.83203125 94.01171875 C44.76411382 90.26409192 45.22144348 86.24322212 45.88452148 82.125 C46.86116277 76.55932977 48.5504399 73.04635855 53.0625 69.625 C56.99974111 67.30303729 60.54639403 67.22885035 65.0625 67.625 C70.3215971 69.51827496 72.85258594 72.22283215 76.0625 76.625 C79.39787132 86.63111395 76.11728396 97.43123103 71.9375 106.6875 C65.14299146 119.46523247 53.66808023 128.18528434 40.0625 132.625 C27.3527019 136.23524723 12.70841076 134.17986083 1.22265625 128.12890625 C-2.57421348 125.94448048 -5.94334464 123.84873916 -8.9375 120.625 C-12.15727235 122.1270647 -14.95236908 123.98712036 -17.875 126 C-30.7313125 134.11353582 -44.86425577 135.59073348 -59.65625 132.96484375 C-72.89709713 129.32361079 -83.77179618 121.41556466 -90.7578125 109.52734375 C-96.19883968 98.92128352 -98.07878462 89.43144346 -98.17578125 77.59765625 C-98.183853 76.64990829 -98.19192474 75.70216034 -98.20024109 74.72569275 C-98.21401177 72.72966301 -98.22476497 70.73361043 -98.23266602 68.73754883 C-98.24421223 66.70590261 -98.26470544 64.67428734 -98.29418945 62.64282227 C-98.33697619 59.69005966 -98.35304632 56.73819077 -98.36328125 53.78515625 C-98.38078934 52.88595963 -98.39829742 51.986763 -98.41633606 51.06031799 C-98.39622747 45.16490253 -97.43217067 40.48360807 -93.9375 35.625 C-90.54482855 32.70995977 -87.35350597 31.40157772 -82.875 31.1875 C-77.41811581 31.79382047 -74.31536447 33.09817721 -70.625 37.1875 C-68.40771531 40.39024455 -67.81384525 41.99101064 -67.81152344 45.82421875 C-67.80581329 47.12697754 -67.80581329 47.12697754 -67.79998779 48.45605469 C-67.79896057 49.39868164 -67.79793335 50.34130859 -67.796875 51.3125 C-67.77853252 53.31120918 -67.7589609 55.30990739 -67.73828125 57.30859375 C-67.70942919 60.45738023 -67.68750305 63.60546773 -67.68701172 66.75439453 C-67.68365168 69.79522602 -67.64893489 72.83445031 -67.609375 75.875 C-67.6164447 76.80143311 -67.6235144 77.72786621 -67.63079834 78.68237305 C-67.50496358 85.53334248 -65.79333581 90.91585778 -61.9375 96.625 C-56.71067133 101.62518671 -51.60259289 102.99460399 -44.5703125 102.90234375 C-38.96950311 102.31234751 -34.73476842 99.84329083 -31.0625 95.625 C-27.461641 90.54143435 -26.64427635 87.16122995 -26.66625977 80.93823242 C-26.65841965 79.78379387 -26.65841965 79.78379387 -26.65042114 78.60603333 C-26.64019332 76.93749718 -26.63440286 75.26892923 -26.63253975 73.60036278 C-26.62887201 70.95578047 -26.61213336 68.31157181 -26.59178162 65.66706848 C-26.53641491 58.14912884 -26.50572214 50.6311339 -26.48120117 43.11303711 C-26.46528831 38.51120653 -26.43502839 33.90964041 -26.39643669 29.30794716 C-26.3848175 27.55816782 -26.37885661 25.80834109 -26.37875557 24.05852318 C-26.37856259 21.60538668 -26.36022819 19.15297461 -26.33813477 16.69995117 C-26.34271194 15.9833432 -26.34728912 15.26673523 -26.352005 14.52841187 C-26.27269036 8.9630161 -25.09417743 4.25308234 -21.5078125 -0.1171875 C-14.56749337 -5.55689709 -6.95016721 -5.61928412 0 0 Z " fill="#FC3165" transform="translate(392.9375,57.375)"/>
<path d="M0 0 C4.56292471 5.11600649 5.50652512 9.90544426 5.46655273 16.59008789 C5.47341599 17.39913574 5.48027924 18.20818359 5.48735046 19.04174805 C5.50559187 21.70639812 5.501782 24.37045733 5.49609375 27.03515625 C5.50065952 28.90116058 5.50596628 30.76716322 5.51197815 32.63316345 C5.52090611 36.54449285 5.51849288 40.4556181 5.50854492 44.36694336 C5.49710445 49.34749612 5.51719243 54.32733465 5.54646206 59.30779362 C5.56493616 63.16432587 5.5645086 67.02069092 5.55882454 70.87725639 C5.55867243 72.71143019 5.56462433 74.54561613 5.57711601 76.37974739 C5.67522435 93.15796143 3.30325282 107.51765448 -8.4375 120.4375 C-19.60095887 130.98076671 -33.06060278 135.81962507 -48.18237305 135.73706055 C-54.95189498 135.52562348 -60.75582169 134.13841008 -66.9375 131.3125 C-67.72253906 130.961875 -68.50757812 130.61125 -69.31640625 130.25 C-81.95016384 123.92213533 -91.45351034 112.65719649 -95.9375 99.3125 C-99.87202892 84.38255782 -97.70416266 69.5631988 -90.25 56.125 C-82.45269181 43.95025564 -71.61003388 36.59853481 -57.71484375 33.0078125 C-46.063407 30.86308061 -36.02709188 32.22104852 -24.9375 36.3125 C-24.9689209 35.14847656 -24.9689209 35.14847656 -25.00097656 33.9609375 C-25.08462759 30.41159252 -25.13631629 26.86245565 -25.1875 23.3125 C-25.22101563 22.09175781 -25.25453125 20.87101562 -25.2890625 19.61328125 C-25.36756542 12.35176153 -25.03648072 7.40303496 -20.9375 1.3125 C-14.55160481 -3.71055693 -7.03821795 -4.04323159 0 0 Z M-60.84765625 67.9609375 C-65.94548154 73.69755662 -67.42022454 78.91046708 -67.24609375 86.53125 C-66.58190143 92.51738837 -63.97537483 96.62127128 -59.625 100.6875 C-54.87359811 104.38976007 -50.35541651 105.58580261 -44.375 105.125 C-37.7391776 104.14483608 -33.26845866 101.44126683 -28.9375 96.3125 C-25.28561902 90.87631235 -23.84005452 85.82858252 -24.9375 79.3125 C-26.91056043 72.6780843 -31.28029607 68.13693936 -36.9375 64.3125 C-45.36483606 61.0272673 -53.83430044 61.90851183 -60.84765625 67.9609375 Z " fill="#000433" transform="translate(157.9375,55.6875)"/>
<path d="M0 0 C11.6819238 8.22903659 18.9550287 19.45145974 21.82421875 33.59765625 C23.80858549 48.92587692 20.51885716 62.84834551 11.203125 75.21484375 C2.60587119 85.41158664 -8.56538845 92.43560262 -22.03173828 93.77783203 C-37.80095321 94.80548873 -51.01681953 91.65492543 -63.390625 81.40234375 C-73.02920618 72.43250275 -79.5560562 61.07050294 -80.09375 47.75 C-80.11320747 46.06000333 -80.11671554 44.36975876 -80.10546875 42.6796875 C-80.0998291 41.79418213 -80.09418945 40.90867676 -80.08837891 39.99633789 C-79.97188965 33.73994212 -79.44911244 28.2927689 -76.79296875 22.5546875 C-76.41398438 21.68070313 -76.035 20.80671875 -75.64453125 19.90625 C-69.29579615 6.805103 -59.09186946 -1.29104929 -45.79296875 -6.4453125 C-30.21572417 -11.41099301 -13.65571568 -8.86849387 0 0 Z M-44.66796875 28.4921875 C-49.35808069 34.15304354 -50.25813635 38.18703388 -50.09765625 45.515625 C-49.55215642 50.95663609 -47.88650343 54.62964656 -43.8515625 58.33984375 C-37.35539609 63.40039328 -31.96169493 64.33799001 -23.79296875 63.5546875 C-17.56735272 61.79111709 -13.32491753 57.87584717 -9.79296875 52.5546875 C-7.16636667 46.82391932 -7.00785137 41.39237186 -8.98046875 35.4296875 C-11.51377628 29.29766273 -16.2436008 25.93256364 -21.79296875 22.5546875 C-30.50092874 19.65203417 -38.61307985 21.7603545 -44.66796875 28.4921875 Z " fill="#000433" transform="translate(250.79296875,97.4453125)"/>
<path d="M0 0 C3.60399719 2.17884241 6.17142832 4.75714247 8.5 8.25 C9.43987762 13.4193269 9.46520988 18.56529496 6.6953125 23.16796875 C3.61579971 26.88330135 1.51107999 28.75953551 -3.48828125 29.23828125 C-9.51093024 29.3965528 -13.36420697 29.28810855 -18 25 C-21.37187428 21.17854249 -21.52251454 17.41019097 -21.33984375 12.5 C-20.69521068 7.75787165 -19.05558402 4.60549 -15.26953125 1.6484375 C-10.23714055 -1.30470195 -5.54966939 -1.88967237 0 0 Z " fill="#E83967" transform="translate(316,54)"/>
</svg>
